# xmcd
#
# Track frame offsets: 
#        150
#        14399
#        24940
#        34922
#        44046
#        57636
#        72281
#        81396
#        93738
#        108402
#        122406
#        136732
#        149939
#        165949
#        174893
#        182639
#        194620
#        202777
#        213560
#        221676
#        231746
#        244018
#
# Disc length: 3343 seconds
#
# Revision: 0
# Processed by: cddbd v1.5.2PL0 Copyright (c) Steve Scherf et al.
# Submitted via: ExactAudioCopy v0.99pb4
#
DISCID=4b0d0d16
DTITLE=Various Artist - Frank Sinatra
DYEAR=2008
DGENRE=Blues
TTITLE0=C.Porter/BEGIN THE BEGUINE
TTITLE1=Green&Heyman/OUT OF NOWHERE
TTITLE2=Donaldson&Kahn/LOVE ME OR LEAVE ME
TTITLE3=McHugh&Fields/ON THE SUNNY SIDE OF THE STREET
TTITLE4=I. Berlin/HOW DEEP IS THE OCEAN
TTITLE5=H. Carmichael&M. Parish/STARDUST
TTITLE6=I.Berlin/I'VE GOT MY LOVE TO KEEP ME WARM
TTITLE7=Young&Lewis/STREET OF DREAMS
TTITLE8=Crosby&Young&Washington/(I DIDN'T STAND A) CHOST OF A CHANCE
TTITLE9=C. Porter/NIGHT AND DAY
TTITLE10=Knight&Schumann/MELANCHOLY MOOD
TTITLE11=A. Altman&J. Lawrance/ALL OR NOTHING AT ALL
TTITLE12=Hammerstein II&Kern/O'L MAN RIVER
TTITLE13=Lawrence&Gross/TENDERLY
TTITLE14=Donaldson&Lymann/WHAT CAN I SAY AFTER I SAY I'M SORRY
TTITLE15=Hart&Rogers/YOU TOOK ADVANTAGE OF ME
TTITLE16=Gershwin&Gershwin/S'WONDERFUL
TTITLE17=Turk&Ahlert/I DON'T KNOW WHY ?
TTITLE18=Hart&Rogers/THOU SWELL
TTITLE19=Neilberg&Dougherty&Reynolds/I'M CONFESSIN'
TTITLE20=Joseph&David/A SINNER KISSED AN ANGEL
TTITLE21=Porter/JUST YOU, JUST ME
EXTD=
EXTT0=
EXTT1=
EXTT2=
EXTT3=
EXTT4=
EXTT5=
EXTT6=
EXTT7=
EXTT8=
EXTT9=
EXTT10=
EXTT11=
EXTT12=
EXTT13=
EXTT14=
EXTT15=
EXTT16=
EXTT17=
EXTT18=
EXTT19=
EXTT20=
EXTT21=
PLAYORDER=
